<svg width="1200" height="750" viewBox="0 0 1200 750" xmlns="http://www.w3.org/2000/svg">
  <rect width="1200" height="750" fill="#08111F"/>
  <circle cx="305" cy="360" r="300" fill="#4F46E5" opacity=".12"/>
  <g transform="translate(455 65)">
    <rect width="290" height="620" rx="45" fill="#020617" stroke="#475569" stroke-width="5"/>
    <rect x="24" y="62" width="242" height="105" rx="22" fill="#1E1B4B"/>
    <circle cx="70" cy="114" r="25" fill="#6366F1"/>
    <rect x="111" y="94" width="116" height="13" rx="6" fill="#A5B4FC"/>
    <rect x="111" y="121" width="76" height="10" rx="5" fill="#64748B"/>
    <rect x="24" y="191" width="242" height="88" rx="20" fill="#0F172A" stroke="#1E293B"/>
    <rect x="45" y="216" width="175" height="12" rx="6" fill="#334155"/>
    <rect x="45" y="242" width="120" height="10" rx="5" fill="#1E293B"/>
    <rect x="24" y="303" width="242" height="88" rx="20" fill="#0F172A" stroke="#1E293B"/>
    <rect x="45" y="328" width="160" height="12" rx="6" fill="#334155"/>
    <rect x="45" y="354" width="95" height="10" rx="5" fill="#1E293B"/>
    <rect x="24" y="520" width="242" height="52" rx="18" fill="#4F46E5"/>
  </g>
</svg>
