<svg width="800" height="1000" viewBox="0 0 800 1000" fill="none" xmlns="http://www.w3.org/2000/svg">
  <rect width="800" height="1000" fill="#0F172A"/>
  <circle cx="620" cy="180" r="260" fill="#4F46E5" fill-opacity=".18"/>
  <circle cx="130" cy="820" r="300" fill="#0D9488" fill-opacity=".12"/>
  <path d="M150 850C165 662 270 560 400 560C530 560 635 662 650 850" fill="#1E293B"/>
  <circle cx="400" cy="370" r="168" fill="#334155"/>
  <path d="M258 355C271 206 349 161 420 168C525 178 559 279 538 385C516 305 460 269 397 264C333 259 292 293 258 355Z" fill="#111827"/>
  <path d="M329 423C347 443 371 454 401 454C431 454 455 443 473 423" stroke="#64748B" stroke-width="9" stroke-linecap="round"/>
  <circle cx="343" cy="360" r="8" fill="#94A3B8"/>
  <circle cx="457" cy="360" r="8" fill="#94A3B8"/>
  <rect x="48" y="48" width="704" height="904" rx="32" stroke="#64748B" stroke-opacity=".35"/>
  <text x="400" y="925" fill="#94A3B8" font-family="Arial, sans-serif" font-size="20" text-anchor="middle" letter-spacing="4">PORTRAIT PLACEHOLDER</text>
</svg>
